<svg width="12" height="23" viewBox="0 0 12 23" fill="none" xmlns="http://www.w3.org/2000/svg">
<path d="M4.25717 6.48H0.993172C0.929172 5.744 0.929172 5.488 0.929172 5.392C0.929172 3.472 1.69717 2.256 2.36917 1.616C3.07317 0.943998 4.25717 0.271999 6.11317 0.271999C8.06517 0.271999 9.28117 1.008 9.98517 1.68C10.8812 2.544 11.3612 3.728 11.3612 5.264C11.3612 6.992 10.7212 8.304 9.47317 9.2C9.02517 9.52 8.41717 9.84 7.23317 10.32L6.27317 10.704C5.79317 10.896 5.31317 11.088 4.99317 11.408C4.67317 11.728 4.51317 12.176 4.51317 12.56C4.51317 13.072 4.73717 13.552 5.05717 13.808C5.24917 13.968 5.53717 14.128 6.01717 14.128C6.49717 14.128 6.91317 14 7.23317 13.648C7.61717 13.232 7.74517 12.592 7.74517 11.952H10.8812C10.8812 13.52 10.2732 14.832 9.47317 15.664C8.67317 16.464 7.45717 17.008 5.98517 17.008C4.54517 17.008 3.39317 16.432 2.62517 15.696C1.98517 15.056 1.31317 13.968 1.31317 12.304C1.31317 11.12 1.72917 10.224 2.33717 9.552C3.07317 8.752 4.22517 8.272 5.12117 7.92C5.95317 7.6 6.84917 7.344 7.45717 6.8C7.96917 6.32 8.16117 5.84 8.16117 5.2C8.16117 4.784 8.09717 4.176 7.61717 3.696C7.23317 3.312 6.62517 3.152 6.14517 3.152C5.56917 3.152 4.99317 3.376 4.67317 3.728C4.28917 4.112 4.12917 4.784 4.12917 5.424C4.12917 5.776 4.19317 6.16 4.25717 6.48ZM4.25717 20.496C4.25717 19.44 5.12117 18.576 6.17717 18.576C7.23317 18.576 8.09717 19.44 8.09717 20.496C8.09717 21.552 7.23317 22.416 6.17717 22.416C5.12117 22.416 4.25717 21.552 4.25717 20.496Z" fill="#636161"/>
</svg>
